Patient4_TMGait_0pt5_02_right_42_EMG.mot
version=1
nRows=30
nColumns=33
inDegrees=no
endheader
time	1LAddLong	2LGlutMax	3LGlutMed	4LIliopsoas	5LSemiMemb	6LBicFemLong	7LRecFem	8LVastMed	9LVastLat	10LGasMed	11LTibAnt	12lTibPost	13LPeroneusLong	14LSol	15LExtDigLong	16LFlexDigLong	17RAddLong	18RGlutMax	19RGlutMed	20RIliopsoas	21RSemiMemb	22RBicFemLong	23RRecFem	24RVastMed	25RVastLat	26RGasMed	27RTibAnt	28RTibPost	29RPeroneusLong	30RSol	31RExtDigLong	32RFlexDigLong
55.33	0.002747	-0.19424	-0.11749	-0.00885	-0.007782	-0.044708	-0.037231	0.014801	0.20569	0.16861	-0.025787	-0.0177	-0.19302	0.080719	0.001526	-0.10254	0.009918	-0.18555	0.20309	0.065002	-0.42816	0.45166	-0.07309	0.39536	-0.96725	0.002289	0.11475	-0.0177	-0.23148	-0.2832	-0.000305	-0.010376
55.331	-0.000916	-0.20233	-0.11292	-0.00946	-0.009613	-0.059662	-0.032806	0.013275	0.21164	-0.36728	-0.025482	-0.045166	-0.18051	0.20508	0.018158	-0.11124	0.023346	-0.12787	0.096283	0.010986	-0.41168	0.19623	-0.20905	0.19531	-0.63538	-0.007935	0.24017	-0.003967	-1.0553	-0.40405	0.000916	-0.016174
55.332	-0.008392	-0.22888	-0.12375	-0.01236	-0.004883	-0.052185	-0.001984	0.013733	0.20584	-0.5545	-0.016479	-0.013428	-0.19989	0.31891	0.013733	-0.15762	0.042877	-0.10254	0.36941	-0.11612	-0.33295	0.13245	-0.18646	-0.095978	-0.47669	0.000305	0.040741	-0.00885	0.41977	-0.39047	0.002136	-0.012817
55.333	-0.008392	-0.23025	-0.14313	0.001373	-0.008545	-0.03479	-0.022583	-0.003815	0.20828	-0.31296	-0.025024	-0.007782	-0.20981	0.25314	-0.03006	-0.011597	0.043488	-0.021667	0.42297	-0.12116	0.14465	0.085449	-0.095978	-0.60699	-0.37048	-0.001526	-0.19196	-0.016327	0.89737	-0.15472	-0.00061	-0.01236
55.334	-0.007782	-0.2446	-0.15213	0.003204	-0.001221	-0.04364	-0.029907	-0.006561	0.19363	-0.051422	-0.014496	0.00412	-0.21072	0.098572	-0.032043	-0.38513	0.061646	-0.01358	0.38208	-0.062256	0.21759	-0.10803	-0.031586	-0.7959	-0.31815	-0.005493	-0.074158	-0.021973	-0.27557	0.033875	-0.002899	-0.007629
55.335	-0.021515	-0.24429	-0.16052	0.005493	0.00412	-0.048218	0.043182	-0.011139	0.20187	-0.084686	-0.012512	-0.0177	-0.18341	0.062561	-0.021667	-0.017395	0.074921	0.028229	0.38879	0.013733	0.19043	-0.053253	-0.30594	-0.64468	-0.28488	-0.009003	0.13412	-0.016632	0.55176	-0.11475	-0.005798	-0.010071
55.336	-0.019836	-0.28549	-0.16785	0.001373	0.00885	-0.048065	0.15152	-0.025024	0.19836	-0.086975	-0.014496	-0.030365	-0.19379	0.20004	-0.018921	-0.079803	0.074921	0.095673	0.47699	0.035095	-0.34943	0.038452	-0.45227	-0.37842	-0.15259	0.004272	0.19226	-0.016174	0.46997	-0.34302	-0.002289	-0.011597
55.337	-0.016785	-0.3125	-0.17609	-0.007629	0.008545	-0.057983	0.21408	-0.026093	0.20081	-0.058441	-0.020752	-0.023041	-0.15442	0.30975	-0.015564	-0.26871	0.02594	0.048828	0.1738	0.046692	-0.51422	0.047455	-0.2713	0.005341	0.063171	0.003204	0.12543	-0.016022	0.09079	-0.24094	0.001221	-0.009613
55.338	-0.024719	-0.38406	-0.16434	-0.016022	0.009003	-0.060577	0.21927	-0.023804	0.18601	-0.031128	-0.02121	-0.029602	-0.13473	0.31982	-0.009003	-0.18265	-0.081177	-0.003357	-0.5896	-0.000305	-0.14282	0.26855	-0.21194	0.37018	0.017395	0.001221	0.044403	-0.018463	-1.0454	-0.048523	0.000305	-0.014191
55.339	-0.015869	-0.41031	-0.15869	0.000153	0.004425	-0.063477	0.12085	-0.010223	0.16785	0.20126	-0.016327	-0.018311	-0.15549	0.078735	-0.018616	0.13641	-0.1442	-0.1442	-1.1368	-0.061646	0.32166	0.38361	-0.026703	0.42954	-0.009918	0.005646	-0.18158	-0.016785	-1.2744	-0.00061	0.001068	-0.012512
55.34	-0.01358	-0.48599	-0.17944	0.026245	0.006409	-0.052948	0.058441	-0.008698	0.15411	0.26947	-0.005951	-0.01297	-0.18997	-0.095825	-0.007782	0.13702	-0.1181	-0.23117	-1.3344	0.028839	0.19073	0.31128	0.062866	0.54184	-0.0737	0.011597	-0.16815	-0.019073	-0.68131	-0.040131	-0.006866	-0.015411
55.341	-0.006256	-0.4924	-0.20905	0.041809	0.003967	-0.050812	0.006866	-0.006866	0.15488	-0.22568	-0.014038	-0.00351	-0.20813	-0.030212	0.006866	-0.095673	-0.087433	-0.34775	-1.0834	0.036163	-0.001526	0.17609	-0.002899	0.49805	0.16953	0.024261	-0.041199	-0.014648	-0.62576	-0.13519	-0.003967	-0.012817
55.342	-0.005646	-0.53574	-0.19623	0.02243	0.005035	-0.033875	0.005341	0.000305	0.15442	-0.43549	-0.023651	0.005188	-0.19012	-0.040436	-0.005188	-0.099335	-0.056458	-0.29373	0.12482	-0.084534	0.082703	-0.12116	0.04364	0.42557	0.52307	0.031128	0.016022	-0.01358	-0.30655	-0.085754	0.000153	-0.016785
55.343	0.002441	-0.47836	-0.18875	-0.007477	0.001984	-0.031433	-0.11612	0.001373	0.15243	-0.33798	-0.02121	0.00946	-0.1651	-0.057373	-0.015869	-0.072479	-0.052795	-0.23392	0.77286	-0.11139	0.14358	-0.19867	0.19852	0.24872	0.52429	0.017548	0.033875	-0.014191	-0.867	0.008698	-0.006561	-0.011139
55.344	0.008545	-0.47867	-0.1831	-0.002899	0.003662	-0.035095	-0.24994	-0.012512	0.15808	-0.31586	-0.02182	0.005035	-0.16052	0.012512	0.006104	0.12695	-0.026093	-0.30395	-0.12833	-0.096436	0.19409	-0.17792	0.49667	0.18982	0.28183	-0.000458	-0.027161	-0.014801	0.16495	-0.11246	0.003815	-0.00946
55.345	-0.002899	-0.56229	-0.18097	-0.005341	0.006866	-0.028534	-0.36026	-0.003815	0.15686	-0.26504	-0.01297	0.007324	-0.15793	-0.039368	0.027008	0.021667	0.010223	-0.37048	-0.75058	-0.079498	-0.006714	0.028839	0.47638	0.077209	-0.027618	-0.024719	0.040588	-0.006409	1.1688	-0.19363	-0.009155	-0.012207
55.346	0.003357	-0.62027	-0.18036	-0.005188	-0.003662	-0.026093	-0.34866	-0.012207	0.15991	-0.064087	-0.019836	0.001831	-0.18646	-0.080261	0.031128	-0.081024	-0.039673	-0.34317	-0.86441	-0.010223	-0.25024	0.21835	0.078888	0.063171	-0.18326	-0.032806	0.06073	0.001221	0.70145	-0.22797	-0.001984	-0.013885
55.347	0.000916	-0.64926	-0.18677	0.005798	0.008698	-0.034332	-0.35385	-0.023041	0.15854	0.12253	-0.017395	0.003662	-0.21744	0.004425	-0.001984	-0.013885	-0.06424	-0.3186	-1.3779	0.036316	-0.037994	0.083923	0.13626	0.088348	-0.34683	-0.034637	0.044403	0.005646	0.015869	-0.20783	-0.002136	-0.018616
55.348	-0.006714	-0.66559	-0.16953	0.001373	0.00473	-0.048065	-0.35889	-0.0354	0.1593	0.022888	-0.019226	0.009613	-0.19653	0.049896	-0.003815	-0.005493	-0.009918	-0.39978	-0.22263	-0.079956	0.29388	-0.13977	0.43503	0.038605	-0.61127	-0.009918	-0.01236	-0.003052	-1.2077	-0.46753	-0.000916	-0.007477
55.349	-0.000458	-0.66284	-0.15869	0.003967	0.00412	-0.048523	-0.44891	-0.027466	0.15793	-0.023956	-0.018311	0.011597	-0.18066	0.028229	0.01709	-0.008392	-0.020599	-0.47073	0.90073	-0.12878	0.29297	0.03418	0.59494	0.003815	-0.55908	0.042877	0.00824	-0.079956	-1.687	-0.32105	-0.001831	-0.009918
55.35	0.000458	-0.64285	-0.16434	-0.006866	0.003204	-0.07019	-0.47836	-0.021973	0.14389	-0.1767	-0.023651	0.012817	-0.16266	0.023041	-0.016479	-0.000458	-0.032043	-0.40039	-0.2092	0.025177	-0.10468	0.09491	0.50858	0.079346	-0.33417	0.043793	0.029144	-0.045013	-0.38132	0.16724	-0.00351	-0.006714
55.351	-0.011139	-0.66162	-0.15915	0.001831	0.001984	-0.086365	-0.65903	-0.027008	0.14145	-0.25406	-0.034485	0.010223	-0.13138	0.060577	-0.007629	-0.017242	-0.011139	-0.48553	-1.0107	0.023956	-0.41412	-0.013123	0.6247	-0.12299	-0.14603	0.008698	0.06958	0.041656	0.6105	0.44968	-0.002136	-0.006256
55.352	-0.014038	-0.64285	-0.14969	0.003052	-0.002899	-0.095825	-0.75836	-0.021667	0.13001	-0.18951	-0.023346	0.013275	-0.14191	0.059204	-0.007324	-0.027008	0.015411	-0.44983	-0.33371	-0.00824	-0.33707	-0.043488	0.82947	-0.094299	-0.059509	-0.022583	0.097351	0.027466	0.83237	0.4248	-0.002441	-0.005341
55.353	-0.003967	-0.6485	-0.15671	0.004578	0.008698	-0.070953	-0.67184	-0.027771	0.13779	-0.17746	-0.028076	0.024414	-0.15091	0.065613	-0.027771	-0.030518	0.026855	-0.36911	1.3245	0.03891	-0.001373	-0.11444	0.98068	0.058746	-0.044861	-0.029144	0.15472	0.016327	1.6753	0.32425	0.010376	-0.016785
55.354	0.005035	-0.625	-0.15579	-0.023499	0.004578	-0.078125	-0.54565	-0.024414	0.12695	-0.11063	-0.014038	0.033264	-0.1741	0.050659	-0.013123	-0.017548	0.034637	-0.41214	1.2094	0.11414	0.10422	-0.11398	0.88348	0.31052	-0.032959	-0.018921	0.057983	0.007477	3.0441	0.12604	-0.001221	-0.014496
55.355	-0.002899	-0.64026	-0.16769	-0.010376	0.00946	-0.049438	-0.39047	-0.015564	0.11978	0.12665	-0.025024	0.041656	-0.17563	0.051575	0.067291	-0.019073	0.055847	-0.5693	0.74799	0.1947	0.085602	-0.045929	0.80658	-0.027618	-0.035858	-0.010071	0.006409	0.003204	1.9534	0.002747	-0.003052	-0.014343
55.356	-0.003357	-0.62988	-0.1712	-0.00885	0.001984	-0.013733	-0.29953	-0.008087	0.097961	0.018158	-0.034332	0.037994	-0.18234	0.10162	0.075226	0.00351	0.071411	-0.54947	0.34622	0.2153	0.0383	0.1059	0.27618	-0.090027	0.032501	-0.022278	0.062561	0.002136	-1.6241	-0.23743	-0.002136	-0.011292
55.357	-0.006866	-0.56503	-0.15839	0.00946	0.00473	0.009155	-0.18158	-0.007629	0.10223	-0.031128	-0.009155	0.034027	-0.14603	0.063019	0.009766	0.016479	0.068207	-0.4451	0.17685	0.045624	-0.14847	0.066681	-0.40024	-0.030365	0.13855	-0.048065	0.035553	0.000458	-2.1806	-0.056305	0.007019	-0.011139
55.358	-0.001068	-0.50156	-0.1564	0.001526	-0.003357	0.028381	-0.1178	-0.010681	0.099792	-0.027466	0.041809	0.027008	-0.10376	0.063477	-0.021515	0.012207	0.024261	-0.44159	-0.038147	0.042877	-0.30914	-0.05127	-0.069885	0.02121	0.1091	0.019836	-0.037537	-0.007019	-0.34882	0.087128	-0.005646	-0.00885
55.359	0.006561	-0.49072	-0.14496	0.004425	-0.00473	0.027313	-0.10208	-0.026855	0.10239	-0.046082	0.08316	0.027313	-0.12466	0.10757	0.074158	0.029297	0.007019	-0.42679	0.26306	0.027466	-0.073547	-0.24139	0.46814	0.054626	-0.075226	0.039368	0.046844	-0.045166	0.21866	0.15915	0.000916	-0.01297
